{
    "asset":{
	"generator":"Khronos glTF Blender I/O v4.1.63, hacked by Seb with CompoundRay extras",
	"version":"2.0"
    },
    "scene":0,
    "scenes":[
	{
	    "name":"Scene",
            "extras" : { "background-shader": "simple_sky" },
	    "nodes":[
		0
	    ]
	}
    ],
    "nodes":[
        {
            "camera" : 0,
            "name" : "regular-panoramic_Orientation",
            "rotation" : [ -0.7071067690849304, 0, 0, 0.7071067690849304 ]
        },
        {
            "children" : [ 0 ],
            "name" : "regular-panoramic",
            "rotation" : [ 0.7071068286895752, 0, 0, 0.7071068286895752 ]
        },
        {
            "camera" : 1,
            "name" : "insect-eye-spherical-projector_Orientation",
            "rotation" : [ -0.7071067690849304, 0, 0, 0.7071067690849304 ]
        },
        {
            "children" : [ 2 ],
            "name" : "insect-eye-spherical-projector",
            "rotation" : [ 0.7071068286895752, 0, 0, 0.7071068286895752 ]
        },
        {
            "camera" : 2,
            "name" : "insect-eye-spherical-projector-ids_Orientation",
            "rotation" : [ -0.7071067690849304, 0, 0, 0.7071067690849304 ]
        },
        {
            "children" : [ 4 ],
            "name" : "insect-eye-spherical-projector-ids",
            "rotation" : [ 0.7071068286895752, 0, 0, 0.7071068286895752 ]
        },
        {
            "camera" : 3,
            "name" : "insect-eye-fast-vector_Orientation",
            "rotation" : [ -0.7071067690849304, 0, 0, 0.7071067690849304 ]
        },
        {
            "children" : [ 6 ],
            "name" : "insect-eye-fast-vector",
            "rotation" : [ 0.7071068286895752, 0, 0, 0.7071068286895752 ]
        },
        {
	    "mesh":0,
	    "name":"Cube"
        }
    ],
    "materials":[
        {
	    "doubleSided":true,
	    "name":"Material",
	    "pbrMetallicRoughness":{
	        "baseColorFactor":[
		    0.800000011920929,
		    0.800000011920929,
		    0.800000011920929,
		    1
	        ],
	        "metallicFactor":0,
	        "roughnessFactor":0.5
	    }
        }
    ],
    "cameras" : [
        {
            "extras" : {
                "panoramic" : "true"
            },
            "name" : "regular-panoramic",
            "perspective" : {
                "aspectRatio" : 1.7777777777777777,
                "yfov" : 0.39959652046304894,
                "zfar" : 1000,
                "znear" : 0.10000000149011612
            },
            "type" : "perspective"
        },
        {
            "extras" : {
                "compound-eye" : "true",
                "compound-projection" : "spherical_orientationwise",
                "compound-structure" : "eyes/1000-horizontallyAcute-variableDegree.eye"
            },
            "name" : "insect-eye-spherical-projector",
            "perspective" : {
                "aspectRatio" : 1.7777777777777777,
                "yfov" : 0.39959652046304894,
                "zfar" : 1000,
                "znear" : 0.10000000149011612
            },
            "type" : "perspective"
        },
        {
            "extras" : {
                "compound-eye" : "true",
                "compound-structure" : "1000-horizontallyAcute-variableDegree.eye",
                "compound-projection" : "spherical_orientationwise_ids"
            },
            "name" : "insect-eye-spherical-projector-ids",
            "perspective" : {
                "aspectRatio" : 1.7777777777777777,
                "yfov" : 0.39959652046304894,
                "zfar" : 1000,
                "znear" : 0.10000000149011612
            },
            "type" : "perspective"
        },
        {
            "extras" : {
                "compound-eye" : "true",
                "compound-projection" : "single_dimension_fast",
                "compound-structure" : "1000-horizontallyAcute-variableDegree.eye"
            },
            "name" : "insect-eye-fast-vector",
            "perspective" : {
                "aspectRatio" : 1.7777777777777777,
                "yfov" : 0.39959652046304894,
                "zfar" : 1000,
                "znear" : 0.10000000149011612
            },
            "type" : "perspective"
        }
    ],
    "meshes":[
        {
	    "name":"Cube",
	    "primitives":[
	        {
		    "attributes":{
		        "POSITION":0,
		        "NORMAL":1,
		        "TEXCOORD_0":2
		    },
		    "indices":3,
		    "material":0
	        }
	    ]
        }
    ],
    "accessors":[
        {
	    "bufferView":0,
	    "componentType":5126,
	    "count":24,
	    "max":[
	        1,
	        1,
	        1
	    ],
	    "min":[
	        -1,
	        -1,
	        -1
	    ],
	    "type":"VEC3"
        },
        {
	    "bufferView":1,
	    "componentType":5126,
	    "count":24,
	    "type":"VEC3"
        },
        {
	    "bufferView":2,
	    "componentType":5126,
	    "count":24,
	    "type":"VEC2"
        },
        {
	    "bufferView":3,
	    "componentType":5123,
	    "count":36,
	    "type":"SCALAR"
        }
    ],
    "bufferViews":[
        {
	    "buffer":0,
	    "byteLength":288,
	    "byteOffset":0,
	    "target":34962
        },
        {
	    "buffer":0,
	    "byteLength":288,
	    "byteOffset":288,
	    "target":34962
        },
        {
	    "buffer":0,
	    "byteLength":192,
	    "byteOffset":576,
	    "target":34962
        },
        {
	    "buffer":0,
	    "byteLength":72,
	    "byteOffset":768,
	    "target":34963
        }
    ],
    "buffers":[
        {
	    "byteLength":840,
	    "uri":"data:application/octet-stream;base64,"
        }
    ]
}
