{
	"asset":{
		"generator":"Khronos glTF Blender I/O v4.1.63",
		"version":"2.0"
	},
	"scene":0,
	"scenes":[
		{
			"extras":{
				"background-shader":"simple_sky"
			},
			"name":"Scene",
			"nodes":[
				1,
				3,
				5,
				7,
				8,
				9,
				10
			]
		}
	],
	"nodes":[
		{
			"camera":0,
			"name":"regular-panoramic_Orientation",
			"rotation":[
				-0.7071068286895752,
				0,
				0,
				0.7071068286895752
			],
			"translation":[
				0.04965496063232422,
				20.021379470825195,
				-0.09312805533409119
			]
		},
		{
			"children":[
				0
			],
			"name":"regular-panoramic",
			"rotation":[
				0.70710688829422,
				0,
				0,
				0.7071066498756409
			]
		},
		{
			"camera":1,
			"name":"insect-eye-spherical-projector_Orientation",
			"rotation":[
				-0.7071068286895752,
				0,
				0,
				0.7071068286895752
			],
			"translation":[
				0.0119781494140625,
				19.940813064575195,
				-2.6792245080287103e-06
			]
		},
		{
			"children":[
				2
			],
			"name":"insect-eye-spherical-projector",
			"rotation":[
				0.70710688829422,
				0,
				0,
				0.7071066498756409
			]
		},
		{
			"camera":2,
			"name":"insect-eye-spherical-projector-ids_Orientation",
			"rotation":[
				-0.7071068286895752,
				0,
				0,
				0.7071068286895752
			],
			"translation":[
				0,
				20.01150131225586,
				-2.6887221338256495e-06
			]
		},
		{
			"children":[
				4
			],
			"name":"insect-eye-spherical-projector-ids",
			"rotation":[
				0.70710688829422,
				0,
				0,
				0.7071066498756409
			]
		},
		{
			"camera":3,
			"name":"insect-eye-fast-vector_Orientation",
			"rotation":[
				-0.7071068286895752,
				0,
				0,
				0.7071068286895752
			],
			"translation":[
				0,
				20.031259536743164,
				-2.691376494112774e-06
			]
		},
		{
			"children":[
				6
			],
			"name":"insect-eye-fast-vector",
			"rotation":[
				0.70710688829422,
				0,
				0,
				0.7071066498756409
			]
		},
		{
			"mesh":0,
			"name":"Rock.Landscape.Style_2.004",
			"rotation":[
				-0.3499453067779541,
				0.498687207698822,
				-0.1674446314573288,
				0.7751204371452332
			],
			"scale":[
				0.6961680054664612,
				0.5236148834228516,
				0.564661979675293
			],
			"translation":[
				-0.6520023941993713,
				0.5969142913818359,
				-10.88937759399414
			]
		},
		{
			"mesh":1,
			"name":"Walnut_L.001",
			"rotation":[
				0.6706810593605042,
				0.04611475020647049,
				-0.011342616751790047,
				0.7402241230010986
			],
			"scale":[
				0.9025136828422546,
				0.9994210004806519,
				0.9997365474700928
			],
			"translation":[
				-12.54227352142334,
				0.29401230812072754,
				-16.022483825683594
			]
		},
		{
			"mesh":2,
			"name":"Bottom_T",
			"rotation":[
				0.7071068286895752,
				0,
				0,
				0.7071068286895752
			],
			"translation":[
				33.87329864501953,
				-1.4516751766204834,
				-22.319931030273438
			]
		}
	],
	"cameras":[
		{
			"extras":{
				"panoramic":"true"
			},
			"name":"regular-panoramic",
			"perspective":{
				"aspectRatio":1.7777777777777777,
				"yfov":0.39959651231765747,
				"zfar":1000,
				"znear":0.10000000149011612
			},
			"type":"perspective"
		},
		{
			"extras":{
				"compound-eye":"true",
				"compound-projection":"spherical_orientationwise",
				"compound-structure":"eyes/1000-horizontallyAcute-variableDegree.eye"
			},
			"name":"insect-eye-spherical-projector",
			"perspective":{
				"aspectRatio":1.7777777777777777,
				"yfov":0.39959651231765747,
				"zfar":1000,
				"znear":0.10000000149011612
			},
			"type":"perspective"
		},
		{
			"extras":{
				"compound-eye":"true",
				"compound-structure":"1000-horizontallyAcute-variableDegree.eye",
				"compound-projection":"spherical_orientationwise_ids"
			},
			"name":"insect-eye-spherical-projector-ids",
			"perspective":{
				"aspectRatio":1.7777777777777777,
				"yfov":0.39959651231765747,
				"zfar":1000,
				"znear":0.10000000149011612
			},
			"type":"perspective"
		},
		{
			"extras":{
				"compound-eye":"true",
				"compound-projection":"single_dimension_fast",
				"compound-structure":"1000-horizontallyAcute-variableDegree.eye"
			},
			"name":"insect-eye-fast-vector",
			"perspective":{
				"aspectRatio":1.7777777777777777,
				"yfov":0.39959651231765747,
				"zfar":1000,
				"znear":0.10000000149011612
			},
			"type":"perspective"
		}
	],
	"meshes":[
		{
			"name":"Rock.Landscape.Style_2.Mesh.002",
			"primitives":[
				{
					"attributes":{
						"POSITION":0,
						"NORMAL":1,
						"COLOR_0":2
					},
					"indices":3
				}
			]
		},
		{
			"name":"Walnut_L",
			"primitives":[
				{
					"attributes":{
						"POSITION":4,
						"NORMAL":5,
						"TEXCOORD_0":6,
						"COLOR_0":7
					},
					"indices":8
				}
			]
		},
		{
			"name":"Bottom_T",
			"primitives":[
				{
					"attributes":{
						"POSITION":9,
						"NORMAL":10,
						"TEXCOORD_0":11,
						"COLOR_0":12
					},
					"indices":13
				}
			]
		}
	],
	"accessors":[
		{
			"bufferView":0,
			"componentType":5126,
			"count":386,
			"max":[
				2.1221680641174316,
				1.5619831085205078,
				1.3581664562225342
			],
			"min":[
				-1.8675824403762817,
				-0.4443701505661011,
				-1.513512372970581
			],
			"type":"VEC3"
		},
		{
			"bufferView":1,
			"componentType":5126,
			"count":386,
			"type":"VEC3"
		},
		{
			"bufferView":2,
			"componentType":5126,
			"count":386,
			"type":"VEC3"
		},
		{
			"bufferView":3,
			"componentType":5123,
			"count":576,
			"type":"SCALAR"
		},
		{
			"bufferView":4,
			"componentType":5126,
			"count":10494,
			"max":[
				27.06503677368164,
				7.462856769561768,
				0.700177013874054
			],
			"min":[
				14.409770965576172,
				-8.017064094543457,
				-13.372156143188477
			],
			"type":"VEC3"
		},
		{
			"bufferView":5,
			"componentType":5126,
			"count":10494,
			"type":"VEC3"
		},
		{
			"bufferView":6,
			"componentType":5126,
			"count":10494,
			"type":"VEC2"
		},
		{
			"bufferView":7,
			"componentType":5126,
			"count":10494,
			"type":"VEC3"
		},
		{
			"bufferView":8,
			"componentType":5123,
			"count":31032,
			"type":"SCALAR"
		},
		{
			"bufferView":9,
			"componentType":5126,
			"count":39478,
			"max":[
				-30.549549102783203,
				9.022384643554688,
				1.6610009670257568
			],
			"min":[
				-48.85936737060547,
				-9.717415809631348,
				-45.42677688598633
			],
			"type":"VEC3"
		},
		{
			"bufferView":10,
			"componentType":5126,
			"count":39478,
			"type":"VEC3"
		},
		{
			"bufferView":11,
			"componentType":5126,
			"count":39478,
			"type":"VEC2"
		},
		{
			"bufferView":12,
			"componentType":5126,
			"count":39478,
			"type":"VEC3"
		},
		{
			"bufferView":13,
			"componentType":5123,
			"count":118788,
			"type":"SCALAR"
		}
	],
	"bufferViews":[
		{
			"buffer":0,
			"byteLength":4632,
			"byteOffset":0,
			"target":34962
		},
		{
			"buffer":0,
			"byteLength":4632,
			"byteOffset":4632,
			"target":34962
		},
		{
			"buffer":0,
			"byteLength":4632,
			"byteOffset":9264,
			"target":34962
		},
		{
			"buffer":0,
			"byteLength":1152,
			"byteOffset":13896,
			"target":34963
		},
		{
			"buffer":0,
			"byteLength":125928,
			"byteOffset":15048,
			"target":34962
		},
		{
			"buffer":0,
			"byteLength":125928,
			"byteOffset":140976,
			"target":34962
		},
		{
			"buffer":0,
			"byteLength":83952,
			"byteOffset":266904,
			"target":34962
		},
		{
			"buffer":0,
			"byteLength":125928,
			"byteOffset":350856,
			"target":34962
		},
		{
			"buffer":0,
			"byteLength":62064,
			"byteOffset":476784,
			"target":34963
		},
		{
			"buffer":0,
			"byteLength":473736,
			"byteOffset":538848,
			"target":34962
		},
		{
			"buffer":0,
			"byteLength":473736,
			"byteOffset":1012584,
			"target":34962
		},
		{
			"buffer":0,
			"byteLength":315824,
			"byteOffset":1486320,
			"target":34962
		},
		{
			"buffer":0,
			"byteLength":473736,
			"byteOffset":1802144,
			"target":34962
		},
		{
			"buffer":0,
			"byteLength":237576,
			"byteOffset":2275880,
			"target":34963
		}
	],
	"buffers":[
		{
			"byteLength":2513456,
			"uri":"data:application/octet-stream;base64,"
		}
	]
}
