{
	"asset":{
		"generator":"Khronos glTF Blender I/O v4.1.63",
		"version":"2.0"
	},
	"scene":0,
	"scenes":[
		{
			"extras":{
				"background-shader":"simple_sky"
			},
			"name":"Scene",
			"nodes":[
				1,
				3,
				5,
				7,
				8,
				9
			]
		}
	],
	"nodes":[
		{
			"camera":0,
			"name":"regular-panoramic_Orientation",
			"rotation":[
				-0.7071068286895752,
				0,
				0,
				0.7071068286895752
			]
		},
		{
			"children":[
				0
			],
			"name":"regular-panoramic",
			"rotation":[
				0.70710688829422,
				0,
				0,
				0.7071066498756409
			]
		},
		{
			"camera":1,
			"name":"insect-eye-spherical-projector_Orientation",
			"rotation":[
				-0.7071068286895752,
				0,
				0,
				0.7071068286895752
			]
		},
		{
			"children":[
				2
			],
			"name":"insect-eye-spherical-projector",
			"rotation":[
				0.70710688829422,
				0,
				0,
				0.7071066498756409
			]
		},
		{
			"camera":2,
			"name":"insect-eye-spherical-projector-ids_Orientation",
			"rotation":[
				-0.7071068286895752,
				0,
				0,
				0.7071068286895752
			]
		},
		{
			"children":[
				4
			],
			"name":"insect-eye-spherical-projector-ids",
			"rotation":[
				0.70710688829422,
				0,
				0,
				0.7071066498756409
			]
		},
		{
			"camera":3,
			"name":"insect-eye-fast-vector_Orientation",
			"rotation":[
				-0.7071068286895752,
				0,
				0,
				0.7071068286895752
			]
		},
		{
			"children":[
				6
			],
			"name":"insect-eye-fast-vector",
			"rotation":[
				0.70710688829422,
				0,
				0,
				0.7071066498756409
			]
		},
		{
			"mesh":0,
			"name":"Rock.Landscape.Style_2.004",
			"rotation":[
				-0.3499453067779541,
				0.498687207698822,
				-0.1674446314573288,
				0.7751204371452332
			],
			"scale":[
				0.6961680054664612,
				0.5236148834228516,
				0.564661979675293
			],
			"translation":[
				-0.6520023941993713,
				0.009128093719482422,
				0.02932637929916382
			]
		},
		{
			"mesh":1,
			"name":"Walnut_L.001",
			"rotation":[
				0.6706810593605042,
				0.04611475020647049,
				-0.011342616751790047,
				0.7402241230010986
			],
			"scale":[
				0.9025136828422546,
				0.9994210004806519,
				0.9997365474700928
			],
			"translation":[
				-18.685955047607422,
				0.29401230812072754,
				-16.022483825683594
			]
		}
	],
	"cameras":[
		{
			"extras":{
				"panoramic":"true"
			},
			"name":"regular-panoramic",
			"perspective":{
				"aspectRatio":1.7777777777777777,
				"yfov":0.39959651231765747,
				"zfar":1000,
				"znear":0.10000000149011612
			},
			"type":"perspective"
		},
		{
			"extras":{
				"compound-eye":"true",
				"compound-projection":"spherical_orientationwise",
				"compound-structure":"eyes/1000-horizontallyAcute-variableDegree.eye"
			},
			"name":"insect-eye-spherical-projector",
			"perspective":{
				"aspectRatio":1.7777777777777777,
				"yfov":0.39959651231765747,
				"zfar":1000,
				"znear":0.10000000149011612
			},
			"type":"perspective"
		},
		{
			"extras":{
				"compound-eye":"true",
				"compound-structure":"1000-horizontallyAcute-variableDegree.eye",
				"compound-projection":"spherical_orientationwise_ids"
			},
			"name":"insect-eye-spherical-projector-ids",
			"perspective":{
				"aspectRatio":1.7777777777777777,
				"yfov":0.39959651231765747,
				"zfar":1000,
				"znear":0.10000000149011612
			},
			"type":"perspective"
		},
		{
			"extras":{
				"compound-eye":"true",
				"compound-projection":"single_dimension_fast",
				"compound-structure":"1000-horizontallyAcute-variableDegree.eye"
			},
			"name":"insect-eye-fast-vector",
			"perspective":{
				"aspectRatio":1.7777777777777777,
				"yfov":0.39959651231765747,
				"zfar":1000,
				"znear":0.10000000149011612
			},
			"type":"perspective"
		}
	],
	"materials":[
		{
			"doubleSided":true,
			"name":"Rock.Landscape.Beige.Mat",
			"pbrMetallicRoughness":{
				"baseColorFactor":[
					0.800000011920929,
					0.7468353509902954,
					0.7045944333076477,
					1
				],
				"metallicFactor":0,
				"roughnessFactor":0.5
			}
		},
		{
			"doubleSided":true,
			"name":"Walnut_L.jpg.001",
			"pbrMetallicRoughness":{
				"baseColorTexture":{
					"index":0
				},
				"metallicFactor":0,
				"roughnessFactor":0.525658369064331
			}
		}
	],
	"meshes":[
		{
			"name":"Rock.Landscape.Style_2.Mesh.002",
			"primitives":[
				{
					"attributes":{
						"POSITION":0,
						"NORMAL":1
					},
					"indices":2,
					"material":0
				}
			]
		},
		{
			"name":"Walnut_L",
			"primitives":[
				{
					"attributes":{
						"POSITION":3,
						"NORMAL":4,
						"TEXCOORD_0":5
					},
					"indices":6,
					"material":1
				}
			]
		}
	],
	"textures":[
		{
			"sampler":0,
			"source":0
		}
	],
	"images":[
		{
			"bufferView":7,
			"mimeType":"image/jpeg",
			"name":"Walnut_L"
		}
	],
	"accessors":[
		{
			"bufferView":0,
			"componentType":5126,
			"count":386,
			"max":[
				2.1221680641174316,
				1.5619831085205078,
				1.3581664562225342
			],
			"min":[
				-1.8675824403762817,
				-0.4443701505661011,
				-1.513512372970581
			],
			"type":"VEC3"
		},
		{
			"bufferView":1,
			"componentType":5126,
			"count":386,
			"type":"VEC3"
		},
		{
			"bufferView":2,
			"componentType":5123,
			"count":576,
			"type":"SCALAR"
		},
		{
			"bufferView":3,
			"componentType":5126,
			"count":10494,
			"max":[
				27.06503677368164,
				7.462856769561768,
				0.700177013874054
			],
			"min":[
				14.409770965576172,
				-8.017064094543457,
				-13.372156143188477
			],
			"type":"VEC3"
		},
		{
			"bufferView":4,
			"componentType":5126,
			"count":10494,
			"type":"VEC3"
		},
		{
			"bufferView":5,
			"componentType":5126,
			"count":10494,
			"type":"VEC2"
		},
		{
			"bufferView":6,
			"componentType":5123,
			"count":31032,
			"type":"SCALAR"
		}
	],
	"bufferViews":[
		{
			"buffer":0,
			"byteLength":4632,
			"byteOffset":0,
			"target":34962
		},
		{
			"buffer":0,
			"byteLength":4632,
			"byteOffset":4632,
			"target":34962
		},
		{
			"buffer":0,
			"byteLength":1152,
			"byteOffset":9264,
			"target":34963
		},
		{
			"buffer":0,
			"byteLength":125928,
			"byteOffset":10416,
			"target":34962
		},
		{
			"buffer":0,
			"byteLength":125928,
			"byteOffset":136344,
			"target":34962
		},
		{
			"buffer":0,
			"byteLength":83952,
			"byteOffset":262272,
			"target":34962
		},
		{
			"buffer":0,
			"byteLength":62064,
			"byteOffset":346224,
			"target":34963
		},
		{
			"buffer":0,
			"byteLength":13497,
			"byteOffset":408288
		}
	],
	"samplers":[
		{
			"magFilter":9729,
			"minFilter":9987
		}
	],
	"buffers":[
		{
			"byteLength":421788,
			"uri":"data:application/octet-stream;base64,"
		}
	]
}
